<svg xmlns="http://www.w3.org/2000/svg" xmlns:xlink="http://www.w3.org/1999/xlink" width="500" zoomAndPan="magnify" viewBox="0 0 375 380.250002" height="507" preserveAspectRatio="xMidYMid meet" version="1.0"><defs><clipPath id="d2753a0886"><path d="M 103.53125 12.035156 L 271.199219 12.035156 L 271.199219 367.585938 L 103.53125 367.585938 Z M 103.53125 12.035156 " clip-rule="nonzero"/></clipPath></defs><g clip-path="url(#d2753a0886)"><path fill="#ffffff" d="M 232.515625 71.003906 L 271.199219 71.003906 L 271.199219 12.570312 L 221.804688 12.570312 L 221.804688 12.792969 C 156.867188 15.175781 143.476562 51.625 142.359375 90.160156 L 142.210938 90.160156 L 142.210938 130.703125 L 103.53125 130.703125 L 103.53125 189.214844 L 142.210938 189.214844 L 142.210938 367.050781 L 211.613281 367.050781 L 211.613281 189.214844 L 261.378906 189.214844 L 271.199219 130.703125 L 211.613281 130.703125 L 211.613281 94.40625 C 211.613281 81.511719 220.242188 71.003906 232.519531 71.003906 Z M 232.515625 71.003906 " fill-opacity="1" fill-rule="nonzero"/></g></svg>