<svg xmlns="http://www.w3.org/2000/svg" xmlns:xlink="http://www.w3.org/1999/xlink" width="500" zoomAndPan="magnify" viewBox="0 0 375 380.250002" height="507" preserveAspectRatio="xMidYMid meet" version="1.0"><defs><clipPath id="73a7a146d8"><path d="M 17.757812 7 L 357 7 L 357 371 L 17.757812 371 Z M 17.757812 7 " clip-rule="nonzero"/></clipPath></defs><g clip-path="url(#73a7a146d8)"><path fill="#ffffff" d="M 348.707031 225.164062 C 343.421875 250.535156 303.253906 278.019531 258.851562 284.363281 C 167.941406 295.988281 114.03125 278.019531 114.03125 278.019531 C 117.199219 291.761719 109.800781 335.101562 188.027344 332.988281 C 220.796875 332.988281 249.339844 325.589844 249.339844 325.589844 L 251.453125 354.132812 C 197.542969 379.5 138.34375 369.988281 103.457031 360.472656 C 32.632812 342.503906 19.949219 265.332031 17.832031 189.222656 L 17.832031 126.851562 C 17.832031 48.625 69.632812 25.371094 69.632812 25.371094 C 122.488281 0 259.910156 2.113281 304.308594 25.371094 C 304.308594 25.371094 356.105469 48.625 356.105469 126.851562 C 356.105469 126.851562 357.164062 184.992188 348.707031 225.164062 " fill-opacity="1" fill-rule="nonzero"/></g><path fill="#ff4d00" d="M 294.796875 132.136719 L 294.796875 228.335938 L 257.796875 228.335938 L 257.796875 135.308594 C 257.796875 116.28125 249.339844 106.769531 233.484375 106.769531 C 214.453125 106.769531 204.941406 118.394531 204.941406 141.652344 L 204.941406 191.335938 L 169 191.335938 L 169 141.652344 C 169 118.394531 159.484375 106.769531 140.457031 106.769531 C 124.601562 106.769531 116.144531 116.28125 116.144531 135.308594 L 116.144531 228.335938 L 79.144531 228.335938 L 79.144531 132.136719 C 79.144531 113.109375 84.429688 68.710938 134.113281 68.710938 C 175.34375 68.710938 186.96875 107.824219 186.96875 107.824219 C 186.96875 107.824219 197.542969 68.710938 239.824219 68.710938 C 287.394531 68.710938 294.796875 113.109375 294.796875 132.136719 " fill-opacity="1" fill-rule="nonzero"/></svg>